<svg width="327" height="27" viewBox="0 0 327 27" fill="none" xmlns="http://www.w3.org/2000/svg">
<path fill-rule="evenodd" clip-rule="evenodd" d="M13.5 0C20.9558 0 27 6.04416 27 13.5C27 20.9558 20.9558 27 13.5 27C6.04416 27 0 20.9558 0 13.5C0 6.04416 6.04416 0 13.5 0ZM13.5 1.57275C20.0871 1.5735 25.4264 6.91384 25.4259 13.5009C25.4254 20.088 20.0853 25.4275 13.4982 25.4272C6.91114 25.427 1.5714 20.0871 1.5714 13.5C1.57149 10.3365 2.82832 7.30259 5.06539 5.06578C7.30245 2.82897 10.3365 1.57248 13.5 1.57275ZM9.22927 7.64437C8.81201 7.6394 8.41017 7.80197 8.11373 8.09568C7.8173 8.38939 7.65102 8.7897 7.65214 9.207C7.65214 10.078 8.35825 10.7841 9.22927 10.7841C10.1003 10.7841 10.8064 10.078 10.8064 9.207C10.8075 8.7897 10.6413 8.38939 10.3448 8.09568C10.0484 7.80197 9.64654 7.6394 9.22927 7.64437ZM22.4967 15.8254C21.7779 19.71 18.0286 22.9534 13.4983 22.9534C9.00416 22.9534 5.27681 19.7572 4.51575 15.9165C4.36151 14.958 5.14654 14.7319 5.886 14.9107C8.35973 15.626 10.9251 15.974 13.5 15.9435C16.0691 15.9733 18.6286 15.6265 21.0971 14.9141C21.816 14.7319 22.5858 14.9377 22.4967 15.8254ZM20.0563 16.3654C19.9861 16.3924 19.9149 16.4126 19.843 16.4362C19.8356 16.4396 20.0732 16.362 20.0661 16.3654C17.9315 16.953 15.725 17.2382 13.5111 17.2125C10.8692 17.2125 8.50635 16.9189 6.88027 16.335C5.70139 15.984 5.92751 17.3711 6.75607 17.7964C8.87576 18.7613 11.182 19.2476 13.5108 19.2206C16.281 19.2206 18.7495 18.576 20.3799 17.7424C21.1515 17.2463 21.304 15.9165 20.0563 16.3654ZM17.7795 7.64437C17.3622 7.6394 16.9603 7.80196 16.6638 8.09566C16.3673 8.38936 16.201 8.78967 16.202 9.207C16.1937 9.77602 16.4925 10.3054 16.9839 10.5923C17.4754 10.8793 18.0833 10.8793 18.5747 10.5923C19.0662 10.3054 19.365 9.77602 19.3566 9.207C19.3577 8.78973 19.1914 8.38947 18.8949 8.09578C18.5985 7.80209 18.1967 7.6395 17.7795 7.64437Z" fill="#50555C"/>
<path fill-rule="evenodd" clip-rule="evenodd" d="M312.833 10.3318C313.294 10.3318 313.667 10.7049 313.667 11.1652C313.667 11.193 313.665 11.2204 313.663 11.2474V13.5421H313.658V13.5488C313.658 13.5645 313.659 13.5801 313.661 13.5958C313.662 13.6101 313.663 13.6245 313.663 13.6388V13.9522H313.678C313.926 16.9162 316.351 19.2264 319.324 19.3294H319.66C322.634 19.2281 325.06 16.9172 325.307 13.9522H325.327V11.1752L325.333 11.1752L325.333 11.1652C325.333 10.7049 325.706 10.3318 326.167 10.3318C326.627 10.3318 327 10.7049 327 11.1652C327 11.1892 326.999 11.213 326.997 11.2364V13.2821H326.987C326.99 17.1107 324.128 20.3362 320.327 20.7896V23.3232H323.467V23.3338C323.478 23.3334 323.489 23.3332 323.5 23.3332C323.96 23.3332 324.333 23.7063 324.333 24.1666C324.333 24.6269 323.96 25 323.5 25C323.489 25 323.478 24.9998 323.467 24.9993L315.53 25C315.52 25.0004 315.51 25 315.5 25C315.04 25 314.667 24.6269 314.667 24.1666C314.667 23.7063 315.04 23.3332 315.5 23.3332C315.51 23.3332 315.52 23.3333 315.53 23.3337V23.3232H318.677V20.7896C314.867 20.3468 311.995 17.1175 312 13.2821C312 13.2622 312.002 13.2432 312.003 13.2247C312.005 13.2092 312.006 13.194 312.006 13.1788V11.2685C312.002 11.2347 312 11.2002 312 11.1652C312 10.7049 312.373 10.3318 312.833 10.3318ZM323.967 13.4155C323.993 12.9121 323.993 12.382 323.993 11.8786L323.994 7.66486C323.994 7.53421 323.996 7.29569 323.999 7.0056C324.006 6.18543 324.016 4.95307 323.994 4.58121C323.964 4.12636 323.886 3.67599 323.761 3.23773C323.227 1.32384 321.484 0 319.497 0C317.51 0 315.767 1.32384 315.233 3.23773C315.092 3.6721 315.013 4.12453 315 4.58121C315.002 4.85702 315.001 6.13524 315 6.98594C315 7.28681 315 7.53421 315 7.66486V11.8786C315 11.9176 315 11.9567 315 11.996C315 12.4639 315 12.951 315.026 13.4155C315.046 13.8695 315.115 14.32 315.233 14.7589C315.492 15.6817 316.049 16.4929 316.817 17.0658C318.388 18.3059 320.605 18.3059 322.177 17.0658C322.943 16.4911 323.499 15.6806 323.76 14.7589C323.877 14.3198 323.946 13.8694 323.967 13.4155ZM322.3 13.4121C322.32 13.0921 322.327 12.9854 322.327 12.6654C322.327 10.8081 322.331 9.16016 322.335 7.84295C322.34 6.00619 322.343 4.81254 322.33 4.59122C322.308 4.29952 322.255 4.0111 322.17 3.73113C322.01 3.14108 321.663 2.61912 321.18 2.24431C320.191 1.47533 318.806 1.47533 317.817 2.24431C317.332 2.61802 316.983 3.14027 316.823 3.73113C316.747 4.01239 316.699 4.30049 316.68 4.59122C316.662 4.82259 316.665 6.31165 316.669 8.55683C316.671 9.74065 316.673 11.1347 316.673 12.6654C316.673 12.9854 316.677 13.0921 316.693 13.4121C316.706 13.7026 316.75 13.9909 316.823 14.2722C316.983 14.8631 317.332 15.3853 317.817 15.759C318.806 16.528 320.191 16.528 321.18 15.759C321.663 15.3842 322.01 14.8623 322.17 14.2722C322.245 13.9912 322.288 13.7027 322.3 13.4121Z" fill="#50555C"/>
</svg>
