<svg width="30" height="28" viewBox="0 0 30 28" fill="none" xmlns="http://www.w3.org/2000/svg">
<path d="M25.0543 10.446C25.0125 5.89158 28.8624 3.70507 29.0365 3.59847C26.8701 0.502431 23.4985 0.078291 22.2957 0.0283914C19.428 -0.255128 16.6974 1.67734 15.2438 1.67734C13.7902 1.67734 11.5425 0.0692229 9.16476 0.114587C6.0347 0.15995 3.15308 1.89055 1.54161 4.62595C-1.70688 10.1308 0.712654 18.2893 3.87523 22.7576C5.42401 24.9418 7.26768 27.4028 9.69185 27.312C12.0278 27.2213 12.9102 25.8377 15.7291 25.8377C18.548 25.8377 19.3421 27.3121 21.8104 27.269C24.3205 27.2213 25.9134 25.0371 27.4506 22.846C29.2246 20.3102 29.9583 17.8561 30.0001 17.7268C29.9444 17.7041 25.1053 15.8919 25.0543 10.446Z" fill="white"/>
</svg>
