<svg width="73" height="47" viewBox="0 0 73 47" fill="none" xmlns="http://www.w3.org/2000/svg">
<path d="M66.0492 14.7237C66.148 14.6292 66.2462 14.5347 66.345 14.4321C66.8292 13.9393 67.0263 13.258 66.8706 12.6182C66.7267 12.0271 66.2999 11.5429 65.6965 11.2921C65.9757 10.4997 65.7169 9.6461 65.0313 9.13717C64.3995 8.6653 63.6027 8.63256 62.9134 9.0507C62.6423 8.48865 62.1537 8.10263 61.559 7.99146C60.9308 7.86855 60.307 8.06928 59.8351 8.54177L55.7384 12.6299C55.7137 12.4736 55.7094 12.31 55.7056 12.1333C55.7013 12.0228 55.7013 11.9116 55.6933 11.801C55.6853 11.6491 55.6766 11.4934 55.6729 11.3415C55.6649 10.9598 55.6525 10.5701 55.5661 10.1841C55.4345 9.5726 55.012 9.0717 54.429 8.84997C53.8459 8.62824 53.2018 8.71471 52.7089 9.07973C52.3766 9.31381 52.1796 9.64177 52.1425 10.0321C52.1011 10.541 52.0808 11.058 52.0604 11.5589C52.0276 12.31 51.8263 13.0202 51.6169 13.7713C51.5638 13.9516 51.5101 14.1326 51.465 14.3129C51.1407 15.5074 50.8572 16.6816 50.927 17.9415C51.0913 20.7326 52.9176 23.0642 55.4709 23.7454C56.0003 23.8894 56.5259 23.9591 57.0471 23.9591C58.2701 23.9591 59.4646 23.5694 60.614 22.7893C61.4799 22.2026 62.1982 21.4596 62.8961 20.7413L62.9289 20.7085C63.8034 19.8136 64.7064 18.8902 65.6261 17.9953C66.098 17.5358 66.3073 16.9527 66.1968 16.3944C66.1103 15.9552 65.8398 15.5735 65.4494 15.3271C65.589 15.1832 65.7286 15.0436 65.8682 14.904L66.0492 14.7237ZM61.5009 17.3999C61.3286 17.5685 61.16 17.7365 60.992 17.9088C60.7455 18.1633 60.7128 18.4956 60.9098 18.7377C61.0494 18.9063 61.2872 19.0212 61.4966 19.0292C61.7226 19.0335 61.9153 18.8569 62.0222 18.75C62.478 18.2985 62.9338 17.847 63.3853 17.3912L64.2636 16.5167C64.3581 16.4222 64.4649 16.3771 64.5755 16.3851C64.678 16.3975 64.7762 16.4592 64.8503 16.5617C64.9158 16.6482 64.9856 16.7464 64.7188 17.0176L64.0209 17.7278C63.1259 18.6351 62.2309 19.5462 61.328 20.4491C60.8234 20.9537 60.1421 21.5905 59.317 22.0334C57.7821 22.8418 56.2875 22.8622 54.8755 22.0865C53.1103 21.1137 52.2277 19.5171 52.2568 17.3375C52.2691 16.3647 52.5193 15.437 52.7947 14.489C53.1474 13.266 53.4636 12.0592 53.3938 10.7535C53.3895 10.6467 53.4062 10.5275 53.4266 10.4002C53.4389 10.3428 53.447 10.2897 53.4513 10.2359C53.4593 10.1785 53.468 10.1167 53.636 10.084C53.6891 10.0716 53.7385 10.0673 53.7879 10.0673C54.0467 10.0673 54.2147 10.2193 54.2801 10.5145C54.3376 10.7733 54.3623 11.0438 54.387 11.3316C54.387 11.3397 54.387 11.352 54.3907 11.3644L54.374 11.9184C54.374 12.0827 54.3703 12.2507 54.374 12.415C54.3864 13.0554 54.6001 13.5316 55.0269 13.8682C55.4703 14.2172 56.0491 14.1925 56.4388 13.8065L59.2873 10.9536C59.7962 10.4447 60.3052 9.93145 60.8221 9.43055C60.9327 9.32369 61.0605 9.27058 61.1958 9.27058C61.3477 9.2749 61.4997 9.35272 61.6269 9.48798C61.8406 9.71404 61.832 10.0383 61.6102 10.2594C60.9864 10.8875 60.3626 11.5114 59.7345 12.1395L59.4386 12.4353C59.1391 12.7349 58.8352 13.0388 58.5437 13.334C58.3714 13.502 58.2812 13.6953 58.2812 13.8923C58.2812 14.0609 58.351 14.2166 58.4739 14.3395C58.753 14.6143 59.1391 14.594 59.451 14.2901C59.4547 14.2858 59.459 14.2821 59.459 14.2821L63.4897 10.2637C63.7281 10.0296 64.0604 10.0216 64.2864 10.2471C64.5452 10.5058 64.557 10.8215 64.3192 11.0642C63.8306 11.5571 63.3421 12.045 62.8541 12.5335L61.475 13.9084C61.0686 14.3148 60.6622 14.7169 60.2638 15.1196C60.1162 15.2635 60.0383 15.4438 60.034 15.6328C60.034 15.8095 60.0995 15.9694 60.2187 16.0886C60.4732 16.3511 60.8796 16.3511 61.1834 16.0806C61.2125 16.0559 61.2452 16.0232 61.2736 15.9904L61.869 15.3913C62.7596 14.5007 63.675 13.5773 64.5946 12.6824C64.6811 12.5959 64.8405 12.5181 64.98 12.4934C65.321 12.444 65.4976 12.7312 65.5551 12.8584C65.6866 13.1296 65.5347 13.363 65.3827 13.5113C64.2617 14.6403 63.1376 15.7607 62.0129 16.8811C61.8418 17.0552 61.6695 17.2276 61.5009 17.3999ZM21.8476 24.691C21.0459 26.1802 20.2726 27.5655 19.529 28.8477C18.7847 30.1305 18.0003 31.2182 17.1758 32.1113C16.3512 33.0044 15.4637 33.669 14.5132 34.1038C13.5626 34.5386 12.4805 34.6535 11.2669 34.4472C10.7629 34.3552 10.3448 34.2119 10.0131 34.0179C9.6808 33.824 9.41212 33.606 9.20583 33.3651C8.99955 33.1248 8.84514 32.8617 8.74199 32.5751C8.63885 32.2892 8.57523 31.997 8.553 31.6993C8.50667 31.1274 8.54682 30.503 8.67343 29.8273C8.79943 29.1522 8.96557 28.4703 9.17186 27.7835C9.37815 27.0967 9.60668 26.4266 9.85929 25.7737C10.1113 25.1209 10.3398 24.5317 10.5461 24.0048C10.7289 23.4786 10.8667 23.0605 10.9581 22.7511C11.0495 22.4416 11.0612 22.2304 10.992 22.1155C10.9235 22.0012 10.7567 21.9728 10.4942 22.0297C10.2305 22.0871 9.84694 22.2187 9.34357 22.4249C8.77102 22.6769 8.2553 23.066 7.79763 23.5929C7.33934 24.1197 6.93912 24.7435 6.5951 25.4649C6.25169 26.1863 5.95955 26.954 5.71929 27.7662C5.47903 28.5797 5.29559 29.3925 5.1696 30.2053C5.0436 31.0187 4.96887 31.7975 4.94663 32.5412C4.92378 33.2854 4.94663 33.921 5.01519 34.4478C4.07577 34.173 3.30311 33.9444 2.69659 33.761C2.09007 33.5782 1.5972 33.3892 1.21983 33.194C0.841835 32.9994 0.566988 32.7876 0.395286 32.5585C0.223583 32.3299 0.0920275 32.0316 0 31.6654C0.0920275 30.4752 0.332287 29.1065 0.721397 27.5606C1.11112 26.0146 1.58608 24.4063 2.1469 22.7344C2.70771 21.0631 3.32596 19.3911 4.00165 17.7192C4.67672 16.0479 5.36415 14.4902 6.0627 13.0474C6.76124 11.6046 7.44249 10.3397 8.10645 9.25143C8.7704 8.16378 9.35469 7.37938 9.85867 6.89825C10.0872 6.69196 10.5226 6.57769 11.1637 6.55484C11.8048 6.53199 12.4404 6.58387 13.0704 6.70925C13.7004 6.83525 14.2383 7.01868 14.6849 7.25894C15.1314 7.4992 15.2741 7.76849 15.1141 8.06619C14.885 8.47815 14.5817 8.99388 14.2037 9.61213C13.8257 10.2304 13.4249 10.9005 13.0012 11.6219C12.5769 12.3433 12.1365 13.0876 11.6788 13.8547C11.2206 14.6224 10.7969 15.3611 10.4078 16.0701C10.018 16.7804 9.67462 17.427 9.37692 18.0107C9.07922 18.5944 8.87293 19.07 8.75867 19.4362C9.92661 18.2454 11.0544 17.4839 12.1427 17.1516C13.2303 16.8199 14.129 16.8885 14.8393 17.3579C15.5489 17.8273 16.0017 18.6753 16.1962 19.9001C16.3902 21.1254 16.19 22.6769 15.5953 24.5545C15.2519 25.6082 15.011 26.3982 14.8739 26.925C14.7361 27.4525 14.6336 27.8756 14.5644 28.1961C14.473 28.6772 14.4613 28.9861 14.5305 29.1238C14.599 29.2615 14.7244 29.2782 14.9084 29.1751C15.0913 29.0719 15.3149 28.8829 15.5786 28.6081C15.8417 28.3332 16.111 28.0016 16.3858 27.6118C16.6607 27.2684 16.9355 26.9077 17.2104 26.5297C17.4852 26.1517 17.7428 25.7972 17.9836 25.4649C18.2239 25.1333 18.4302 24.8411 18.6019 24.5891C18.7736 24.3371 18.894 24.1654 18.9626 24.074C19.3289 23.4558 19.7297 23.0605 20.1651 22.8888C20.5999 22.7171 20.9779 22.6998 21.2985 22.8375C21.619 22.9746 21.842 23.2155 21.9686 23.5589C22.0934 23.9011 22.0539 24.2791 21.8476 24.691ZM23.6331 34.3094C23.0835 34.3094 22.4998 34.2347 21.8809 34.0865C21.2627 33.9376 20.679 33.7202 20.1287 33.4336C19.579 33.1477 19.0867 32.787 18.6519 32.3515C18.2171 31.9167 17.9083 31.4127 17.7242 30.8402C17.4957 30.2683 17.3635 29.6895 17.329 29.1053C17.2944 28.521 17.3178 27.9373 17.3975 27.353C17.4778 26.7694 17.6155 26.2024 17.8095 25.6527C18.0046 25.103 18.2276 24.5768 18.4796 24.0728C18.9607 23.134 19.5333 22.2582 20.1972 21.4448C20.8612 20.6319 21.5826 19.9217 22.3614 19.3152C23.1397 18.7086 23.942 18.2275 24.7659 17.8724C25.5904 17.5178 26.3915 17.34 27.1703 17.34C28.5446 17.34 29.5346 17.5753 30.1418 18.0441C30.7483 18.5135 31.0571 19.115 31.0695 19.8476C31.0806 20.5807 30.8465 21.3935 30.3654 22.2866C29.8842 23.1797 29.266 24.0617 28.5106 24.9313C27.7552 25.8022 26.8961 26.5971 25.9344 27.3185C24.9728 28.0398 24.0223 28.5957 23.0828 28.9848C23.1057 29.6031 23.2206 30.0614 23.4262 30.3591C23.6325 30.6568 23.9012 30.8402 24.2335 30.9088C24.5652 30.9773 24.9431 30.9489 25.3668 30.8229C25.7905 30.6975 26.2087 30.4968 26.6206 30.2219C27.0326 29.9934 27.4625 29.6327 27.909 29.1399C28.3556 28.6476 28.8077 28.109 29.266 27.5254C29.7236 26.9417 30.1646 26.3352 30.5883 25.7046C31.012 25.0752 31.3956 24.4847 31.739 23.9357C32.0138 23.4323 32.3511 23.1062 32.7525 22.9567C33.1527 22.8079 33.5085 22.8023 33.8173 22.9394C34.1267 23.0772 34.3497 23.323 34.4868 23.6781C34.6246 24.0333 34.5671 24.4508 34.3151 24.9319C33.582 26.1462 32.8433 27.3141 32.0997 28.4358C31.3554 29.558 30.5593 30.5542 29.7125 31.4245C28.8651 32.2953 27.9436 32.9933 26.9474 33.5201C25.9517 34.0463 24.8468 34.3094 23.6331 34.3094ZM22.9118 25.6527C23.2323 25.4699 23.5992 25.2352 24.0111 24.9486C24.4231 24.6626 24.8579 24.2908 25.3162 23.8319C25.7739 23.4199 26.1519 22.9505 26.4496 22.4237C26.7466 21.8975 26.9418 21.4503 27.0338 21.0841C27.1252 20.7178 27.0851 20.4948 26.9134 20.4139C26.7417 20.3336 26.4267 20.5226 25.969 20.9809C25.6713 21.2786 25.3681 21.6393 25.0586 22.063C24.7492 22.4873 24.4577 22.9104 24.1828 23.3341C23.908 23.7584 23.6554 24.1586 23.4269 24.5366C23.1977 24.9146 23.026 25.2068 22.9118 25.4124V25.6527ZM38.7825 32.1453C38.3927 32.5121 37.9925 32.8438 37.5799 33.1415C37.168 33.4392 36.7325 33.6856 36.2743 33.8802C35.816 34.0741 35.3299 34.1946 34.8142 34.2409C34.2991 34.2866 33.7549 34.2292 33.1824 34.0692C31.9687 33.7486 31.1102 33.1477 30.6062 32.2657C30.1029 31.3843 29.9077 30.3134 30.022 29.054C30.0905 28.4586 30.24 27.7718 30.4685 26.993C30.6976 26.2147 30.9787 25.4075 31.3103 24.5712C31.6426 23.7356 31.9971 22.8882 32.3751 22.029C32.7531 21.1705 33.1249 20.3633 33.4918 19.6073C33.6296 19.1953 33.784 18.8291 33.9557 18.5079C34.1274 18.1874 34.3046 17.8328 34.4881 17.4431C34.5338 17.3974 34.6944 17.3517 34.9692 17.306C35.244 17.2603 35.5819 17.2201 35.9827 17.1856C36.383 17.151 36.8122 17.1398 37.2711 17.151C37.7288 17.1627 38.1642 17.2022 38.5768 17.2714C38.9888 17.34 39.3495 17.4382 39.6589 17.5635C39.9683 17.6895 40.1684 17.8557 40.2599 18.062C40.0764 18.4054 39.7905 18.9205 39.4013 19.6079C39.0116 20.2947 38.6114 21.0507 38.1988 21.8752C37.7868 22.6998 37.4027 23.5534 37.0482 24.4347C36.693 25.3167 36.4694 26.1128 36.378 26.8219C36.2174 27.8299 36.2001 28.5284 36.3268 28.9175C36.4521 29.3072 36.6646 29.4789 36.9623 29.4326C37.2594 29.3869 37.6151 29.1578 38.0271 28.7458C38.4391 28.3338 38.8516 27.8299 39.2636 27.2345C40.019 25.7003 40.649 24.4236 41.153 23.4045C41.6563 22.386 42.0918 21.5207 42.4586 20.8111C42.8249 20.1014 43.1281 19.5116 43.369 19.0422C43.6093 18.5728 43.8551 18.1207 44.1077 17.6852C44.4511 17.571 44.8686 17.4789 45.3615 17.4104C45.8538 17.3418 46.3516 17.3245 46.8562 17.3591C47.3596 17.3937 47.8351 17.474 48.2817 17.5994C48.7282 17.7254 49.0543 17.9255 49.2606 18.2003L48.4707 20.0211C48.1495 20.7771 47.8012 21.6016 47.4232 22.4947C47.0452 23.3878 46.6555 24.2927 46.2552 25.2086C45.8544 26.1252 45.4708 27.0238 45.1046 27.9052C44.7377 28.7872 44.4054 29.5944 44.1083 30.3269C44.3369 30.1441 44.5722 29.915 44.8124 29.6401C45.0527 29.3653 45.3331 28.9873 45.6543 28.5068C45.9748 28.0256 46.3757 27.4074 46.8568 26.652C47.3379 25.896 47.9327 24.9344 48.643 23.7664C49.0093 23.1482 49.4045 22.7819 49.8282 22.6671C50.2519 22.5528 50.6182 22.5812 50.9276 22.7529C51.2371 22.9246 51.4483 23.1883 51.5632 23.5429C51.6774 23.898 51.6089 24.247 51.3569 24.5904C50.8529 25.5063 50.2803 26.497 49.6392 27.5618C48.9975 28.6266 48.3045 29.629 47.5609 30.5678C46.8167 31.5072 46.0378 32.3201 45.225 33.0069C44.4122 33.6937 43.5932 34.1174 42.7687 34.2779C42.5624 35.1247 42.2703 36.0296 41.8929 36.9918C41.5155 37.9541 41.0967 38.904 40.6391 39.8434C40.1808 40.7822 39.7058 41.6865 39.2136 42.5573C38.7207 43.4276 38.2569 44.1941 37.8221 44.8586C37.5009 45.362 37.0778 45.7289 36.551 45.958C36.0241 46.1865 35.4917 46.2897 34.9538 46.2675C34.4152 46.2446 33.9063 46.1013 33.4251 45.8382C32.944 45.5745 32.5888 45.1798 32.3603 44.653C32.154 44.0576 32.1028 43.456 32.2059 42.8495C32.3091 42.2423 32.5203 41.6352 32.8415 41.0287C33.162 40.4216 33.5567 39.8144 34.0267 39.2079C34.4961 38.6008 34.9828 37.9998 35.4868 37.4044C35.853 36.969 36.2026 36.5508 36.5343 36.1506C36.866 35.7498 37.1754 35.3434 37.462 34.9308C37.7479 34.5188 38.0055 34.0834 38.2346 33.6257C38.4613 33.165 38.6447 32.6727 38.7825 32.1453ZM44.0033 30.4276H44.0719H44.1059H44.0033ZM48.845 8.36698C48.7665 8.36698 48.6881 8.34474 48.6183 8.29842C48.4293 8.17304 48.378 7.91796 48.504 7.72896C48.6127 7.56591 51.2247 3.72176 56.1108 3.34623C56.343 3.33018 56.5345 3.49817 56.5518 3.72423C56.5691 3.95028 56.3999 4.14731 56.1744 4.16522C51.6824 4.51047 49.2118 8.14772 49.1871 8.18478C49.1081 8.30275 48.9778 8.36698 48.845 8.36698ZM45.4949 7.51032C45.4146 7.51032 45.3337 7.48685 45.2627 7.43806C45.0762 7.30959 45.0286 7.05451 45.1571 6.86736C45.3325 6.61105 49.5534 0.590353 57.4498 0.00113016C57.6845 -0.0155459 57.8729 0.154303 57.8896 0.37974C57.9063 0.605794 57.737 0.802819 57.511 0.819495C50.0185 1.37845 45.8748 7.27253 45.834 7.33183C45.7543 7.44794 45.6259 7.51032 45.4949 7.51032ZM63.9325 25.2086C63.7608 25.2086 63.6009 25.0993 63.5434 24.9276C63.4718 24.7127 63.5885 24.4804 63.8034 24.4088C63.8448 24.3946 68.0114 22.9598 69.5271 18.7321C69.6036 18.5184 69.8371 18.4079 70.052 18.4844C70.2651 18.561 70.3763 18.7957 70.2997 19.0094C68.6457 23.6225 64.2488 25.1265 64.0622 25.1882C64.0184 25.2018 63.9751 25.2086 63.9325 25.2086ZM65.3203 27.4401C65.1629 27.4401 65.0128 27.3493 64.9448 27.1962C64.8528 26.9886 64.9467 26.7465 65.1536 26.6545C65.2092 26.6298 70.6864 24.1339 72.1915 18.1793C72.2471 17.9594 72.4713 17.8273 72.69 17.8816C72.9098 17.9372 73.0426 18.1608 72.9877 18.3801C71.3818 24.7324 65.7261 27.2993 65.4859 27.4049C65.4321 27.429 65.3759 27.4401 65.3203 27.4401Z" fill="url(#paint0_linear_2_3148)"/>
<defs>
<linearGradient id="paint0_linear_2_3148" x1="65.1632" y1="19.7815" x2="-26.8309" y2="34.2955" gradientUnits="userSpaceOnUse">
<stop stop-color="#00EFA9"/>
<stop offset="0.7394" stop-color="#3F56F0"/>
</linearGradient>
</defs>
</svg>
