<svg width="40" height="40" viewBox="0 0 40 40" fill="none" xmlns="http://www.w3.org/2000/svg">
<path d="M6.41953 3.36914C6.07536 3.45831 5.83203 3.75581 5.83203 4.26747C5.83203 5.76914 5.83203 19.93 5.83203 19.93C5.83203 19.93 5.83203 35.2333 5.83203 35.9091C5.83203 36.2808 5.9962 36.53 6.2487 36.6225L23.0662 19.9025L6.41953 3.36914Z" fill="#00D3FF"/>
<path d="M27.6976 15.3L20.7751 11.3033C20.7751 11.3033 8.0709 3.96751 7.32423 3.53667C7.0009 3.35001 6.68257 3.30084 6.4209 3.36917L23.0684 19.9025L27.6976 15.3Z" fill="#00F076"/>
<path d="M7.01417 36.5017C7.4575 36.245 19.7508 29.1475 27.735 24.5375L23.0675 19.9025L6.25 36.6225C6.45667 36.6983 6.72167 36.67 7.01417 36.5017Z" fill="#F73548"/>
<path d="M34.4972 19.2258C33.8339 18.8683 27.7472 15.3292 27.7472 15.3292L27.6964 15.3L23.0664 19.9025L27.7339 24.5375C31.4272 22.405 34.2014 20.8042 34.4497 20.66C35.2364 20.2067 35.1606 19.5833 34.4972 19.2258Z" fill="#FFCF00"/>
</svg>
