<svg width="239" height="494" viewBox="0 0 239 494" fill="none" xmlns="http://www.w3.org/2000/svg">
<path fill-rule="evenodd" clip-rule="evenodd" d="M35.4942 0H202.908C221.858 0 237.22 15.3444 237.22 34.2727V108.237C237.909 108.481 238.403 109.137 238.403 109.909V158.955C238.403 159.726 237.909 160.383 237.22 160.626V459.727C237.22 478.656 221.858 494 202.908 494H35.4942C16.5447 494 1.18314 478.656 1.18314 459.727V168.308C0.493847 168.065 0 167.408 0 166.636V138.273C0 137.501 0.493847 136.844 1.18314 136.601V125.763C0.493847 125.519 0 124.863 0 124.091V95.7273C0 94.9554 0.493847 94.2988 1.18314 94.0554V79.6719C0.493847 79.4285 0 78.7719 0 78V63.2273C0 62.4554 0.493847 61.7988 1.18314 61.5554V34.2727C1.18314 15.3444 16.5447 0 35.4942 0ZM35.4942 7.09091C20.4653 7.09091 8.28198 19.2607 8.28198 34.2727V459.727C8.28198 474.739 20.4653 486.909 35.4942 486.909H202.908C217.937 486.909 230.121 474.739 230.121 459.727V34.2727C230.121 19.2607 217.937 7.09091 202.908 7.09091H185.112C183.073 7.80747 181.612 9.74798 181.612 12.0292C181.612 19.2556 175.747 25.1136 168.513 25.1136H69.2982C62.0638 25.1136 56.1991 19.2556 56.1991 12.0292C56.1991 9.74798 54.7379 7.80747 52.6993 7.09091H35.4942Z" fill="#343434"/>
</svg>
