<svg width="75" height="48" viewBox="0 0 75 48" fill="none" xmlns="http://www.w3.org/2000/svg">
<path d="M66.711 15.5487C66.8098 15.4542 66.908 15.3597 67.0068 15.2571C67.4911 14.7643 67.6881 14.083 67.5324 13.4432C67.3885 12.8521 66.9618 12.3679 66.3583 12.1171C66.6375 11.3247 66.3787 10.4712 65.6932 9.96224C65.0613 9.49038 64.2646 9.45764 63.5753 9.87577C63.3042 9.31373 62.8156 8.92772 62.2209 8.81655C61.5927 8.69364 60.9689 8.89437 60.4971 9.36685L56.4004 13.4549C56.3756 13.2987 56.3713 13.135 56.3676 12.9583C56.3633 12.8478 56.3633 12.7366 56.3553 12.6261C56.3472 12.4741 56.3386 12.3185 56.3349 12.1665C56.3269 11.7849 56.3145 11.3951 56.228 11.0091C56.0965 10.3977 55.674 9.89677 55.091 9.67505C54.5079 9.45332 53.8638 9.53979 53.3709 9.9048C53.0386 10.1389 52.8416 10.4668 52.8045 10.8572C52.7632 11.3661 52.7428 11.8831 52.7224 12.384C52.6897 13.135 52.4883 13.8453 52.2789 14.5963C52.2258 14.7766 52.1721 14.9576 52.127 15.1379C51.8027 16.3324 51.5193 17.5065 51.5891 18.7665C51.7533 21.5575 53.5797 23.8891 56.1329 24.5703C56.6622 24.7142 57.1878 24.784 57.7091 24.784C58.932 24.784 60.1265 24.3943 61.2759 23.6142C62.1418 23.0275 62.8601 22.2845 63.558 21.5662L63.5908 21.5335C64.4653 20.6385 65.3683 19.7152 66.2879 18.8202C66.7598 18.3607 66.9692 17.7777 66.8586 17.2193C66.7721 16.7802 66.5016 16.3985 66.1113 16.1521C66.2509 16.0082 66.3904 15.8686 66.53 15.729L66.711 15.5487ZM62.1628 18.2248C61.9905 18.3934 61.8219 18.5614 61.6539 18.7338C61.4074 18.9882 61.3747 19.3205 61.5717 19.5626C61.7113 19.7312 61.9491 19.8461 62.1585 19.8541C62.3845 19.8585 62.5772 19.6818 62.6841 19.575C63.1399 19.1235 63.5957 18.672 64.0472 18.2162L64.9254 17.3416C65.0199 17.2471 65.1268 17.202 65.2373 17.2101C65.3399 17.2224 65.4381 17.2842 65.5122 17.3867C65.5777 17.4732 65.6474 17.5714 65.3806 17.8425L64.6827 18.5528C63.7878 19.4601 62.8928 20.3711 61.9899 21.2741C61.4853 21.7787 60.804 22.4154 59.9789 22.8583C58.4441 23.6667 56.9494 23.6871 55.5375 22.9114C53.7724 21.9386 52.8898 20.3421 52.9188 18.1625C52.9311 17.1897 53.1813 16.262 53.4567 15.314C53.8094 14.0911 54.1256 12.8842 54.0558 11.5786C54.0515 11.4717 54.0682 11.3525 54.0886 11.2253C54.1009 11.1678 54.109 11.1147 54.1133 11.061C54.1213 11.0036 54.13 10.9418 54.298 10.9091C54.3511 10.8967 54.4005 10.8924 54.4499 10.8924C54.7087 10.8924 54.8767 11.0443 54.9421 11.3395C54.9996 11.5983 55.0243 11.8689 55.049 12.1567C55.049 12.1647 55.049 12.177 55.0527 12.1894L55.036 12.7434C55.036 12.9077 55.0323 13.0757 55.036 13.24C55.0484 13.8805 55.2621 14.3566 55.6888 14.6933C56.1323 15.0422 56.711 15.0175 57.1007 14.6315L59.9492 11.7787C60.4582 11.2698 60.9671 10.7565 61.484 10.2556C61.5946 10.1488 61.7224 10.0956 61.8577 10.0956C62.0096 10.1 62.1616 10.1778 62.2888 10.3131C62.5025 10.5391 62.4938 10.8634 62.2721 11.0845C61.6483 11.7126 61.0245 12.3364 60.3964 12.9645L60.1006 13.2604C59.801 13.5599 59.4971 13.8638 59.2056 14.159C59.0333 14.327 58.9431 14.5203 58.9431 14.7173C58.9431 14.886 59.0129 15.0416 59.1358 15.1645C59.415 15.4393 59.801 15.419 60.1129 15.1151C60.1166 15.1108 60.1209 15.1071 60.1209 15.1071L64.1516 11.0888C64.39 10.8547 64.7222 10.8467 64.9483 11.0721C65.2071 11.3309 65.2188 11.6465 64.981 11.8892C64.4925 12.3821 64.0039 12.87 63.516 13.3586L62.1369 14.7334C61.7305 15.1398 61.3241 15.5419 60.9257 15.9446C60.7781 16.0885 60.7003 16.2688 60.6959 16.4578C60.6959 16.6344 60.7614 16.7944 60.8806 16.9136C61.1351 17.1761 61.5415 17.1761 61.8453 16.9056C61.8744 16.8809 61.9071 16.8481 61.9355 16.8154L62.5309 16.2163C63.4215 15.3257 64.3368 14.4024 65.2565 13.5074C65.343 13.4209 65.5023 13.3431 65.6419 13.3184C65.9828 13.269 66.1595 13.5562 66.2169 13.6834C66.3484 13.9546 66.1965 14.188 66.0446 14.3363C64.9236 15.4653 63.7995 16.5857 62.6748 17.706C62.5037 17.8802 62.3314 18.0525 62.1628 18.2248ZM22.51 25.5159C21.7083 27.005 20.935 28.3903 20.1914 29.6725C19.4472 30.9553 18.6628 32.043 17.8383 32.9361C17.0137 33.8291 16.1262 34.4937 15.1757 34.9285C14.2252 35.3633 13.1431 35.4782 11.9294 35.2719C11.4255 35.1799 11.0073 35.0366 10.6757 34.8427C10.3434 34.6487 10.0747 34.4307 9.86843 34.1898C9.66214 33.9496 9.50774 33.6865 9.40459 33.3999C9.30145 33.1139 9.23784 32.8218 9.2156 32.5241C9.16928 31.9522 9.20942 31.3278 9.33604 30.6521C9.46203 29.977 9.62817 29.2952 9.83446 28.6084C10.0407 27.9216 10.2693 27.2514 10.5219 26.5986C10.7739 25.9458 11.0024 25.3566 11.2087 24.8297C11.3915 24.3035 11.5292 23.8854 11.6206 23.5759C11.712 23.2665 11.7238 23.0553 11.6546 22.9404C11.586 22.8261 11.4193 22.7977 11.1568 22.8546C10.8931 22.912 10.5095 23.0435 10.0062 23.2498C9.43362 23.5018 8.9179 23.8909 8.46024 24.4178C8.00197 24.9446 7.60174 25.5684 7.25773 26.2898C6.91433 27.0112 6.62219 27.7789 6.38193 28.5911C6.14168 29.4045 5.95824 30.2173 5.83225 31.0301C5.70625 31.8435 5.63152 32.6223 5.60928 33.3659C5.58643 34.1102 5.60928 34.7457 5.67784 35.2725C4.73843 34.9977 3.96578 34.7692 3.35927 34.5857C2.75277 34.4029 2.2599 34.2139 1.88253 34.0188C1.50454 33.8242 1.2297 33.6124 1.058 33.3832C0.8863 33.1547 0.754746 32.8564 0.66272 32.4901C0.754746 31.3 0.995002 29.9313 1.38411 28.3854C1.77383 26.8395 2.24878 25.2312 2.80959 23.5593C3.37039 21.888 3.98863 20.2161 4.66432 18.5441C5.33938 16.8729 6.0268 15.3152 6.72533 13.8724C7.42387 12.4297 8.10511 11.1648 8.76906 10.0765C9.433 8.98886 10.0173 8.20448 10.5213 7.72335C10.7498 7.51706 11.1852 7.4028 11.8263 7.37995C12.4674 7.3571 13.1029 7.40898 13.7329 7.53436C14.3629 7.66035 14.9008 7.84379 15.3474 8.08404C15.7939 8.3243 15.9366 8.59358 15.7766 8.89128C15.5475 9.30324 15.2442 9.81895 14.8663 10.4372C14.4883 11.0554 14.0874 11.7256 13.6637 12.4469C13.2394 13.1683 12.7991 13.9126 12.3414 14.6797C11.8831 15.4474 11.4594 16.1861 11.0703 16.8951C10.6806 17.6054 10.3372 18.252 10.0395 18.8357C9.74182 19.4193 9.53553 19.8949 9.42127 20.2611C10.5892 19.0704 11.717 18.3088 12.8052 17.9765C13.8929 17.6449 14.7915 17.7134 15.5018 18.1828C16.2114 18.6522 16.6642 19.5002 16.8587 20.725C17.0527 21.9504 16.8525 23.5018 16.2578 25.3794C15.9144 26.4331 15.6735 27.223 15.5364 27.7499C15.3987 28.2773 15.2961 28.7004 15.227 29.0209C15.1355 29.5021 15.1238 29.8109 15.193 29.9486C15.2615 30.0863 15.3869 30.103 15.571 29.9999C15.7538 29.8967 15.9774 29.7077 16.2411 29.4329C16.5042 29.158 16.7735 28.8264 17.0483 28.4367C17.3232 28.0933 17.598 27.7326 17.8729 27.3546C18.1477 26.9766 18.4053 26.6221 18.6461 26.2898C18.8864 25.9581 19.0927 25.666 19.2644 25.414C19.4361 25.162 19.5565 24.9903 19.6251 24.8989C19.9913 24.2807 20.3922 23.8854 20.8276 23.7137C21.2624 23.542 21.6404 23.5247 21.9609 23.6624C22.2815 23.7995 22.5044 24.0404 22.631 24.3838C22.7558 24.726 22.7163 25.1039 22.51 25.5159ZM24.2955 35.1342C23.7459 35.1342 23.1622 35.0595 22.5433 34.9112C21.9251 34.7624 21.3414 34.545 20.7911 34.2584C20.2415 33.9724 19.7492 33.6117 19.3144 33.1763C18.8796 32.7415 18.5708 32.2375 18.3867 31.665C18.1582 31.0931 18.026 30.5143 17.9914 29.9301C17.9569 29.3458 17.9803 28.7621 18.06 28.1779C18.1403 27.5942 18.278 27.0272 18.472 26.4775C18.6671 25.9279 18.8901 25.4016 19.1421 24.8977C19.6232 23.9589 20.1957 23.0831 20.8597 22.2697C21.5236 21.4569 22.245 20.7466 23.0239 20.1401C23.8021 19.5336 24.6044 19.0525 25.4283 18.6973C26.2528 18.3428 27.0539 18.1649 27.8327 18.1649C29.2069 18.1649 30.197 18.4002 30.8041 18.869C31.4106 19.3384 31.7194 19.94 31.7318 20.6725C31.7429 21.4056 31.5088 22.2184 31.0277 23.1115C30.5465 24.0046 29.9283 24.8865 29.1729 25.7562C28.4176 26.627 27.5585 27.4219 26.5968 28.1433C25.6352 28.8647 24.6847 29.4205 23.7452 29.8096C23.7681 30.4279 23.883 30.8862 24.0886 31.1839C24.2949 31.4815 24.5636 31.665 24.8959 31.7335C25.2275 31.8021 25.6055 31.7737 26.0292 31.6477C26.4529 31.5223 26.871 31.3216 27.283 31.0467C27.695 30.8182 28.1248 30.4575 28.5714 29.9647C29.0179 29.4724 29.47 28.9338 29.9283 28.3502C30.386 27.7665 30.8269 27.16 31.2506 26.5294C31.6743 25.9001 32.0579 25.3096 32.4013 24.7605C32.6761 24.2572 33.0133 23.9311 33.4148 23.7816C33.815 23.6328 34.1708 23.6272 34.4796 23.7643C34.789 23.902 35.012 24.1479 35.1491 24.503C35.2868 24.8581 35.2294 25.2756 34.9774 25.7568C34.2443 26.971 33.5056 28.139 32.762 29.2606C32.0177 30.3828 31.2216 31.379 30.3748 32.2493C29.5275 33.1201 28.606 33.818 27.6097 34.3449C26.6141 34.8711 25.5092 35.1342 24.2955 35.1342ZM23.5742 26.4775C23.8947 26.2947 24.2616 26.06 24.6735 25.7735C25.0855 25.4875 25.5203 25.1157 25.9786 24.6568C26.4362 24.2448 26.8142 23.7754 27.1119 23.2486C27.409 22.7224 27.6042 22.2752 27.6962 21.909C27.7876 21.5427 27.7475 21.3198 27.5758 21.2388C27.4041 21.1586 27.0891 21.3475 26.6314 21.8058C26.3337 22.1035 26.0305 22.4642 25.721 22.8879C25.4116 23.3122 25.1201 23.7353 24.8452 24.159C24.5704 24.5833 24.3178 24.9835 24.0893 25.3615C23.8601 25.7395 23.6884 26.0316 23.5742 26.2373V26.4775ZM39.4447 32.97C39.055 33.3369 38.6547 33.6686 38.2422 33.9663C37.8302 34.264 37.3948 34.5104 36.9365 34.7049C36.4782 34.8989 35.9921 35.0193 35.4764 35.0656C34.9613 35.1113 34.4172 35.0539 33.8447 34.8939C32.631 34.5734 31.7725 33.9724 31.2685 33.0905C30.7652 32.2091 30.57 31.1381 30.6843 29.8788C30.7528 29.2834 30.9023 28.5966 31.1308 27.8178C31.36 27.0396 31.641 26.2323 31.9726 25.3961C32.3049 24.5604 32.6594 23.7131 33.0374 22.8539C33.4154 21.9954 33.7872 21.1882 34.1541 20.4322C34.2918 20.0203 34.4462 19.654 34.6179 19.3329C34.7896 19.0123 34.9669 18.6578 35.1503 18.2681C35.196 18.2224 35.3566 18.1767 35.6315 18.131C35.9063 18.0853 36.2441 18.0451 36.645 18.0105C37.0452 17.9759 37.4744 17.9648 37.9333 17.9759C38.391 17.9877 38.8264 18.0272 39.239 18.0964C39.651 18.1649 40.0117 18.2631 40.3211 18.3885C40.6305 18.5145 40.8306 18.6806 40.922 18.8869C40.7386 19.2303 40.4526 19.7454 40.0635 20.4328C39.6738 21.1196 39.2736 21.8756 38.861 22.7001C38.4491 23.5247 38.0649 24.3782 37.7104 25.2596C37.3552 26.1416 37.1317 26.9377 37.0403 27.6467C36.8797 28.6547 36.8624 29.3532 36.989 29.7423C37.1144 30.132 37.3268 30.3037 37.6245 30.2574C37.9216 30.2117 38.2774 29.9826 38.6893 29.5706C39.1013 29.1587 39.5138 28.6547 39.9258 28.0593C40.6812 26.5251 41.3111 25.2485 41.8151 24.2294C42.3185 23.2109 42.7539 22.3456 43.1208 21.636C43.487 20.9263 43.7903 20.3365 44.0312 19.8671C44.2714 19.3977 44.5172 18.9456 44.7698 18.5102C45.1132 18.3959 45.5308 18.3039 46.0236 18.2353C46.5159 18.1668 47.0137 18.1495 47.5183 18.1841C48.0216 18.2187 48.4972 18.299 48.9438 18.4243C49.3903 18.5503 49.7164 18.7504 49.9227 19.0253L49.1328 20.846C48.8116 21.602 48.4632 22.4265 48.0853 23.3196C47.7073 24.2127 47.3176 25.1175 46.9173 26.0335C46.5165 26.95 46.1329 27.8487 45.7667 28.73C45.3998 29.612 45.0675 30.4192 44.7705 31.1517C44.999 30.9689 45.2343 30.7398 45.4746 30.4649C45.7148 30.1901 45.9952 29.8121 46.3164 29.3316C46.6369 28.8505 47.0378 28.2322 47.5189 27.4769C48 26.7209 48.5948 25.7592 49.3051 24.5913C49.6713 23.9731 50.0666 23.6068 50.4903 23.4919C50.914 23.3777 51.2802 23.4061 51.5897 23.5778C51.8991 23.7495 52.1103 24.0132 52.2252 24.3677C52.3395 24.7229 52.2709 25.0718 52.0189 25.4152C51.5149 26.3312 50.9424 27.3218 50.3013 28.3866C49.6596 29.4514 48.9666 30.4538 48.223 31.3926C47.4788 32.332 46.6999 33.1448 45.8871 33.8316C45.0743 34.5184 44.2554 34.9421 43.4308 35.1027C43.2245 35.9494 42.9324 36.8543 42.555 37.8165C42.1777 38.7788 41.7589 39.7287 41.3013 40.6681C40.843 41.6069 40.368 42.5111 39.8758 43.382C39.3829 44.2522 38.9191 45.0187 38.4843 45.6832C38.1631 46.1866 37.74 46.5535 37.2132 46.7826C36.6864 47.0111 36.154 47.1143 35.616 47.092C35.0774 47.0692 34.5685 46.9259 34.0874 46.6628C33.6063 46.3991 33.2511 46.0044 33.0226 45.4776C32.8163 44.8822 32.7651 44.2806 32.8682 43.6741C32.9713 43.067 33.1826 42.4598 33.5037 41.8533C33.8243 41.2462 34.2189 40.6391 34.689 40.0326C35.1584 39.4254 35.645 38.8245 36.149 38.2291C36.5153 37.7937 36.8649 37.3755 37.1965 36.9753C37.5282 36.5745 37.8376 36.1681 38.1242 35.7555C38.4102 35.3436 38.6677 34.9081 38.8968 34.4505C39.1235 33.9897 39.3069 33.4975 39.4447 32.97ZM44.6655 31.2524H44.734H44.768H44.6655ZM49.507 9.19206C49.4286 9.19206 49.3502 9.16983 49.2804 9.12351C49.0914 8.99813 49.0401 8.74305 49.1661 8.55406C49.2748 8.391 51.8867 4.5469 56.7728 4.17139C57.005 4.15533 57.1965 4.32332 57.2138 4.54937C57.2311 4.77542 57.0618 4.97245 56.8364 4.99036C52.3444 5.33561 49.8739 8.97281 49.8492 9.00986C49.7701 9.12783 49.6398 9.19206 49.507 9.19206ZM46.157 8.33542C46.0767 8.33542 45.9958 8.31195 45.9248 8.26315C45.7383 8.13469 45.6907 7.87961 45.8192 7.69247C45.9946 7.43615 50.2155 1.41554 58.1118 0.826325C58.3465 0.80965 58.5349 0.979497 58.5515 1.20493C58.5682 1.43098 58.399 1.628 58.1729 1.64468C50.6805 2.20363 46.5369 8.09763 46.4961 8.15692C46.4164 8.27304 46.288 8.33542 46.157 8.33542ZM64.5944 26.0335C64.4227 26.0335 64.2627 25.9242 64.2053 25.7525C64.1336 25.5375 64.2504 25.3053 64.4653 25.2336C64.5067 25.2194 68.6732 23.7847 70.1889 19.5571C70.2654 19.3434 70.4989 19.2328 70.7138 19.3094C70.9269 19.386 71.0381 19.6207 70.9615 19.8344C69.3075 24.4474 64.9106 25.9513 64.7241 26.0131C64.6802 26.0267 64.637 26.0335 64.5944 26.0335ZM65.9822 28.265C65.8247 28.265 65.6746 28.1742 65.6067 28.021C65.5147 27.8135 65.6085 27.5714 65.8154 27.4793C65.871 27.4546 71.3481 24.9588 72.8533 19.0043C72.9089 18.7844 73.1331 18.6522 73.3517 18.7066C73.5716 18.7622 73.7044 18.9858 73.6494 19.205C72.0436 25.5573 66.388 28.1241 66.1477 28.2297C66.094 28.2538 66.0378 28.265 65.9822 28.265Z" fill="url(#paint0_linear_2_1175)"/>
<defs>
<linearGradient id="paint0_linear_2_1175" x1="65.825" y1="20.6064" x2="-26.1678" y2="35.1202" gradientUnits="userSpaceOnUse">
<stop stop-color="#00EFA9"/>
<stop offset="0.7394" stop-color="#3F56F0"/>
</linearGradient>
</defs>
</svg>
