<svg width="21" height="21" viewBox="0 0 21 21" fill="none" xmlns="http://www.w3.org/2000/svg">
<path d="M9.30372 0C14.4394 0 18.6074 4.16807 18.6074 9.30372C18.6074 14.4394 14.4394 18.6074 9.30372 18.6074C4.16807 18.6074 0 14.4394 0 9.30372C0 4.16807 4.16807 0 9.30372 0ZM9.30372 16.5399C13.3012 16.5399 16.5399 13.3012 16.5399 9.30372C16.5399 5.30519 13.3012 2.06749 9.30372 2.06749C5.30519 2.06749 2.06749 5.30519 2.06749 9.30372C2.06749 13.3012 5.30519 16.5399 9.30372 16.5399ZM18.0751 16.6133L20.9995 19.5368L19.5368 20.9995L16.6133 18.0751L18.0751 16.6133Z" fill="#343434"/>
</svg>
