<svg width="19" height="18" viewBox="0 0 19 18" fill="none" xmlns="http://www.w3.org/2000/svg">
<path d="M18.05 0C18.302 0 18.5436 0.100089 18.7218 0.278249C18.8999 0.456408 19 0.698044 19 0.95V16.15C19 16.402 18.8999 16.6436 18.7218 16.8218C18.5436 16.9999 18.302 17.1 18.05 17.1H0.95C0.698044 17.1 0.456408 16.9999 0.278249 16.8218C0.100089 16.6436 0 16.402 0 16.15V0.95C0 0.698044 0.100089 0.456408 0.278249 0.278249C0.456408 0.100089 0.698044 0 0.95 0H18.05ZM17.1 1.9H1.9V15.2H17.1V1.9ZM7.02905 4.75L10.0681 12.35H8.02085L7.64085 11.4H4.51535L4.13535 12.35H2.08905L5.12905 4.75H7.02905ZM16.15 4.75V12.35H13.3C12.5441 12.35 11.8192 12.0497 11.2847 11.5153C10.7503 10.9808 10.45 10.2559 10.45 9.5C10.45 8.74413 10.7503 8.01922 11.2847 7.48475C11.8192 6.95027 12.5441 6.65 13.3 6.65H14.2491L14.25 4.75H16.15ZM14.25 8.55H13.3C13.0579 8.55027 12.825 8.64299 12.6489 8.80921C12.4728 8.97543 12.3669 9.20261 12.3527 9.44433C12.3385 9.68605 12.4171 9.92406 12.5726 10.1097C12.728 10.2954 12.9484 10.4148 13.1889 10.4434L13.3 10.45H14.25V8.55ZM6.07905 7.49075L5.2744 9.5H6.8818L6.07905 7.49075Z" fill="#343434"/>
</svg>
